<?xml version="1.0" encoding="utf-8"?>
<!-- Generator: Adobe Illustrator 27.6.1, SVG Export Plug-In . SVG Version: 6.00 Build 0)  -->
<svg version="1.1" id="Layer_1" xmlns="http://www.w3.org/2000/svg" xmlns:xlink="http://www.w3.org/1999/xlink" x="0px" y="0px"
	 viewBox="0 0 42 42" style="enable-background:new 0 0 42 42;" xml:space="preserve">
<style type="text/css">
	.st0{opacity:0.15;fill-rule:evenodd;clip-rule:evenodd;fill:url(#SVGID_1_);enable-background:new    ;}
	
		.st1{opacity:0.15;fill-rule:evenodd;clip-rule:evenodd;fill:url(#SVGID_00000085935521550692850640000018193122420759085743_);enable-background:new    ;}
	
		.st2{fill-rule:evenodd;clip-rule:evenodd;fill:url(#SVGID_00000143589100766489156710000012797530014704517796_);stroke:url(#SVGID_00000139984864798769739380000011611183000131999906_);stroke-width:0.25;}
</style>
<g id="Layer_2">
	<linearGradient id="SVGID_1_" gradientUnits="userSpaceOnUse" x1="19.251" y1="27.4694" x2="22.7976" y2="27.4694">
		<stop  offset="0.2593" style="stop-color:#FFDB6E"/>
		<stop  offset="1" style="stop-color:#FFBC5E"/>
	</linearGradient>
	<path class="st0" d="M20.1,32.76l-0.84-8.91c0,0,0.22-1.67,1.75-1.67c1.53,0,1.8,1.39,1.8,1.39l-1.16,9.2H20.1z"/>
</g>
<g>
	
		<linearGradient id="SVGID_00000130625781129259333020000012934584178827899011_" gradientUnits="userSpaceOnUse" x1="2.7472" y1="17.5411" x2="39.3334" y2="17.5411">
		<stop  offset="0.2593" style="stop-color:#FFDB6E"/>
		<stop  offset="1" style="stop-color:#FFBC5E"/>
	</linearGradient>
	
		<path style="opacity:0.15;fill-rule:evenodd;clip-rule:evenodd;fill:url(#SVGID_00000130625781129259333020000012934584178827899011_);enable-background:new    ;" d="
		M9.35,33.43l-3.1-3.14l2.08-4.1l-0.97-2.72l-4.62-1.38v-5.04l4.78-1.53l0.76-2.62L6.05,8.53l4.27-3.41l3.86,2.08l2.64-0.99
		l1.47-4.55h5.23L25,6.35l2.64,0.99l4.47-2.23l3.61,3.41l-2.03,4.35l0.66,2.28l4.98,1.97v4.94l-4.83,1.53l-0.76,2.27l2.19,4.25
		l-3.66,3.29c-1.19-1.84-2.37-3.68-3.56-5.51c-0.39-0.84-0.78-1.68-1.17-2.52c0.63-0.97,1.25-1.94,1.88-2.92
		c1.08-3.18,0.35-6.65-1.93-9c-0.17-0.18-3.56-3.55-8.13-2.57c-2.57,0.55-4.13,2.18-4.67,2.82c-0.44,0.45-2.58,2.73-2.44,6.13
		c0.09,2.26,1.14,3.87,1.63,4.52l0.66,0.96L9.35,33.43z"/>
	
		<linearGradient id="SVGID_00000042012772267022382650000017229911257210941363_" gradientUnits="userSpaceOnUse" x1="2" y1="21" x2="40" y2="21">
		<stop  offset="0.2593" style="stop-color:#FFDB6E"/>
		<stop  offset="1" style="stop-color:#FFBC5E"/>
	</linearGradient>
	
		<linearGradient id="SVGID_00000118377011511195475430000011817118466952448931_" gradientUnits="userSpaceOnUse" x1="1.875" y1="21" x2="40.125" y2="21">
		<stop  offset="0.2593" style="stop-color:#FFDB6E"/>
		<stop  offset="1" style="stop-color:#FFBC5E"/>
	</linearGradient>
	
		<path style="fill-rule:evenodd;clip-rule:evenodd;fill:url(#SVGID_00000042012772267022382650000017229911257210941363_);stroke:url(#SVGID_00000118377011511195475430000011817118466952448931_);stroke-width:0.25;" d="
		M16.29,19.5c-0.35,0-0.64-0.28-0.64-0.63c0-2.87,2.4-5.21,5.35-5.21c0.85,0,0.85,1.25,0,1.25c-2.24,0-4.06,1.77-4.06,3.96
		C16.94,19.22,16.65,19.5,16.29,19.5L16.29,19.5z M31.14,41c2.75,0,4.43-2.92,3.08-5.2l-1.14-1.92l3.26-3.17
		c0.2-0.2,0.25-0.5,0.11-0.74l-2.27-4.09c0.31-0.6,0.57-1.22,0.79-1.85l4.58-1.34c0.27-0.08,0.46-0.32,0.46-0.6v-5.22
		c0-0.28-0.19-0.52-0.46-0.6l-4.58-1.34c-0.22-0.63-0.48-1.25-0.79-1.85L36.44,9c0.13-0.24,0.09-0.54-0.11-0.74l-3.8-3.69
		c-0.2-0.19-0.51-0.24-0.76-0.11l-4.21,2.2c-0.61-0.3-1.25-0.56-1.9-0.77L24.3,1.45C24.22,1.18,23.97,1,23.68,1h-5.37
		c-0.28,0-0.53,0.18-0.62,0.45L16.33,5.9c-0.65,0.21-1.28,0.47-1.9,0.77l-4.21-2.21C9.97,4.33,9.66,4.37,9.46,4.57l-3.8,3.69
		C5.47,8.46,5.42,8.76,5.56,9l2.27,4.09c-0.31,0.6-0.57,1.22-0.79,1.85l-4.58,1.34C2.19,16.36,2,16.6,2,16.88l0,5.22
		c0,0.28,0.19,0.52,0.46,0.6l4.58,1.34c0.22,0.63,0.48,1.25,0.79,1.85l-2.27,4.09c-0.13,0.24-0.09,0.54,0.11,0.74l3.25,3.16
		l-1.13,1.91C6.45,38.03,8.07,41,10.86,41H31.14L31.14,41z M9.58,32.76l4.29-7.23C8.59,19.63,12.88,10.29,21,10.29
		c8.12,0,12.41,9.35,7.12,15.24l4.29,7.23l2.67-2.6l-2.2-3.97c-0.1-0.18-0.1-0.4,0-0.59c0.39-0.72,0.71-1.48,0.96-2.25
		c0.06-0.2,0.22-0.35,0.43-0.41l4.44-1.3v-4.29l-4.44-1.3c-0.21-0.06-0.37-0.22-0.43-0.41c-0.25-0.77-0.57-1.53-0.96-2.25
		c-0.1-0.18-0.1-0.4,0-0.59l2.2-3.97l-3.12-3.04l-4.08,2.14c-0.19,0.1-0.42,0.1-0.61,0c-0.74-0.38-1.52-0.69-2.31-0.93
		c-0.2-0.06-0.36-0.22-0.43-0.42l-1.33-4.32h-4.41l-1.33,4.32c-0.06,0.2-0.22,0.36-0.43,0.42c-0.8,0.24-1.57,0.55-2.31,0.93
		c-0.19,0.1-0.42,0.1-0.61,0l-4.08-2.14L6.91,8.82l2.2,3.97c0.1,0.18,0.1,0.4,0,0.59c-0.39,0.72-0.71,1.48-0.96,2.25
		c-0.06,0.2-0.22,0.35-0.43,0.41l-4.44,1.3v4.29l4.44,1.3c0.21,0.06,0.37,0.21,0.43,0.41c0.25,0.77,0.57,1.53,0.96,2.25
		c0.1,0.18,0.1,0.41,0,0.59l-2.2,3.97L9.58,32.76L9.58,32.76z M14.56,24.37l3.37-5.68c1.37-2.32,4.78-2.28,6.15,0.01l3.36,5.67
		c4.15-5.16,0.38-12.84-6.44-12.84C14.18,11.54,10.42,19.22,14.56,24.37L14.56,24.37z M20.98,18.22c-0.81,0-1.54,0.41-1.94,1.1
		L8.9,36.41c-0.85,1.43,0.17,3.34,1.96,3.34h20.28c1.78,0,2.81-1.89,1.96-3.33L22.96,19.33C22.55,18.64,21.81,18.22,20.98,18.22
		L20.98,18.22z M21.8,33.43h-1.61c-0.33,0-0.61-0.24-0.64-0.56l-0.89-8.94c-0.2-2.02,2.61-3.19,4.12-1.57
		c0.41,0.44,0.61,1,0.55,1.57l-0.89,8.94C22.41,33.18,22.14,33.43,21.8,33.43L21.8,33.43z M20.78,32.18l-0.84-8.38
		c-0.03-0.27,0.11-0.48,0.22-0.61c0.71-0.76,1.97-0.2,1.89,0.61l-0.84,8.38H20.78L20.78,32.18z M21,38.52c-1.21,0-2.2-0.96-2.2-2.14
		c0-1.18,0.99-2.14,2.2-2.14c1.21,0,2.2,0.96,2.2,2.14C23.2,37.56,22.21,38.52,21,38.52L21,38.52z M21,35.49
		c1.21,0,1.21,1.78,0,1.78C19.79,37.27,19.79,35.49,21,35.49z"/>
</g>
</svg>
